<mxfile host="Electron" agent="Mozilla/5.0 (Windows NT 10.0; Win64; x64) AppleWebKit/537.36 (KHTML, like Gecko) draw.io/28.0.6 Chrome/138.0.7204.100 Electron/37.2.3 Safari/537.36" version="28.0.6">
  <diagram name="Halaman-1" id="H_Solk62WQBUN2IkuS9s">
    <mxGraphModel dx="1106" dy="709" grid="1" gridSize="10" guides="1" tooltips="1" connect="1" arrows="1" fold="1" page="1" pageScale="1" pageWidth="827" pageHeight="1169" math="0" shadow="0">
      <root>
        <mxCell id="0" />
        <mxCell id="1" parent="0" />
        <mxCell id="eiuW8nWrfrVOjzsfFK37-1" value="" style="rounded=0;whiteSpace=wrap;html=1;dashed=1;dashPattern=1 4;fillStyle=hatch;" parent="1" vertex="1">
          <mxGeometry x="60" y="140" width="120" height="370" as="geometry" />
        </mxCell>
        <mxCell id="eiuW8nWrfrVOjzsfFK37-2" value="Sources" style="rounded=0;whiteSpace=wrap;html=1;strokeColor=none;" parent="1" vertex="1">
          <mxGeometry x="80" y="120" width="80" height="40" as="geometry" />
        </mxCell>
        <mxCell id="eiuW8nWrfrVOjzsfFK37-10" style="edgeStyle=orthogonalEdgeStyle;rounded=0;orthogonalLoop=1;jettySize=auto;html=1;entryX=0;entryY=0.5;entryDx=0;entryDy=0;" parent="1" source="eiuW8nWrfrVOjzsfFK37-3" target="eiuW8nWrfrVOjzsfFK37-7" edge="1">
          <mxGeometry relative="1" as="geometry">
            <mxPoint x="230" y="250" as="targetPoint" />
          </mxGeometry>
        </mxCell>
        <mxCell id="eiuW8nWrfrVOjzsfFK37-11" style="edgeStyle=orthogonalEdgeStyle;rounded=0;orthogonalLoop=1;jettySize=auto;html=1;entryX=0;entryY=0.5;entryDx=0;entryDy=0;" parent="1" source="eiuW8nWrfrVOjzsfFK37-3" target="eiuW8nWrfrVOjzsfFK37-9" edge="1">
          <mxGeometry relative="1" as="geometry" />
        </mxCell>
        <mxCell id="eiuW8nWrfrVOjzsfFK37-12" style="edgeStyle=orthogonalEdgeStyle;rounded=0;orthogonalLoop=1;jettySize=auto;html=1;entryX=0;entryY=0.5;entryDx=0;entryDy=0;" parent="1" source="eiuW8nWrfrVOjzsfFK37-3" target="eiuW8nWrfrVOjzsfFK37-8" edge="1">
          <mxGeometry relative="1" as="geometry" />
        </mxCell>
        <mxCell id="eiuW8nWrfrVOjzsfFK37-3" value="CRM&lt;div&gt;&lt;br&gt;&lt;/div&gt;" style="image;aspect=fixed;html=1;points=[];align=center;fontSize=12;image=img/lib/azure2/general/Folder_Blank.svg;" parent="1" vertex="1">
          <mxGeometry x="95.35" y="245" width="49.29" height="40" as="geometry" />
        </mxCell>
        <mxCell id="eiuW8nWrfrVOjzsfFK37-16" style="edgeStyle=orthogonalEdgeStyle;rounded=0;orthogonalLoop=1;jettySize=auto;html=1;entryX=0;entryY=0.5;entryDx=0;entryDy=0;" parent="1" source="eiuW8nWrfrVOjzsfFK37-4" target="eiuW8nWrfrVOjzsfFK37-13" edge="1">
          <mxGeometry relative="1" as="geometry" />
        </mxCell>
        <mxCell id="eiuW8nWrfrVOjzsfFK37-17" style="edgeStyle=orthogonalEdgeStyle;rounded=0;orthogonalLoop=1;jettySize=auto;html=1;entryX=0;entryY=0.5;entryDx=0;entryDy=0;" parent="1" source="eiuW8nWrfrVOjzsfFK37-4" target="eiuW8nWrfrVOjzsfFK37-15" edge="1">
          <mxGeometry relative="1" as="geometry" />
        </mxCell>
        <mxCell id="eiuW8nWrfrVOjzsfFK37-18" style="edgeStyle=orthogonalEdgeStyle;rounded=0;orthogonalLoop=1;jettySize=auto;html=1;entryX=0;entryY=0.5;entryDx=0;entryDy=0;" parent="1" source="eiuW8nWrfrVOjzsfFK37-4" target="eiuW8nWrfrVOjzsfFK37-14" edge="1">
          <mxGeometry relative="1" as="geometry" />
        </mxCell>
        <mxCell id="eiuW8nWrfrVOjzsfFK37-4" value="ERP" style="image;aspect=fixed;html=1;points=[];align=center;fontSize=12;image=img/lib/azure2/general/Folder_Blank.svg;" parent="1" vertex="1">
          <mxGeometry x="95.35" y="385" width="49.29" height="40" as="geometry" />
        </mxCell>
        <mxCell id="eiuW8nWrfrVOjzsfFK37-5" value="" style="rounded=0;whiteSpace=wrap;html=1;fillStyle=hatch;fillColor=#ffe6cc;strokeColor=#d79b00;" parent="1" vertex="1">
          <mxGeometry x="240" y="180" width="150" height="330" as="geometry" />
        </mxCell>
        <mxCell id="eiuW8nWrfrVOjzsfFK37-6" value="Bronze Layer" style="rounded=1;whiteSpace=wrap;html=1;fillColor=#ffe6cc;strokeColor=#d79b00;" parent="1" vertex="1">
          <mxGeometry x="240" y="140" width="150" height="40" as="geometry" />
        </mxCell>
        <mxCell id="LneIyExAPAccpjf_Qm-p-11" style="edgeStyle=orthogonalEdgeStyle;rounded=0;orthogonalLoop=1;jettySize=auto;html=1;entryX=0;entryY=0.5;entryDx=0;entryDy=0;" edge="1" parent="1" source="eiuW8nWrfrVOjzsfFK37-7" target="LneIyExAPAccpjf_Qm-p-3">
          <mxGeometry relative="1" as="geometry" />
        </mxCell>
        <mxCell id="eiuW8nWrfrVOjzsfFK37-7" value="crm_sales_details" style="rounded=1;whiteSpace=wrap;html=1;fillColor=#ffe6cc;strokeColor=#d79b00;" parent="1" vertex="1">
          <mxGeometry x="255" y="210" width="120" height="30" as="geometry" />
        </mxCell>
        <mxCell id="LneIyExAPAccpjf_Qm-p-13" style="edgeStyle=orthogonalEdgeStyle;rounded=0;orthogonalLoop=1;jettySize=auto;html=1;entryX=0;entryY=0.5;entryDx=0;entryDy=0;" edge="1" parent="1" source="eiuW8nWrfrVOjzsfFK37-8" target="LneIyExAPAccpjf_Qm-p-4">
          <mxGeometry relative="1" as="geometry" />
        </mxCell>
        <mxCell id="eiuW8nWrfrVOjzsfFK37-8" value="crm_prd_info" style="rounded=1;whiteSpace=wrap;html=1;fillColor=#ffe6cc;strokeColor=#d79b00;" parent="1" vertex="1">
          <mxGeometry x="255" y="290" width="120" height="30" as="geometry" />
        </mxCell>
        <mxCell id="LneIyExAPAccpjf_Qm-p-12" style="edgeStyle=orthogonalEdgeStyle;rounded=0;orthogonalLoop=1;jettySize=auto;html=1;entryX=0;entryY=0.5;entryDx=0;entryDy=0;" edge="1" parent="1" source="eiuW8nWrfrVOjzsfFK37-9" target="LneIyExAPAccpjf_Qm-p-5">
          <mxGeometry relative="1" as="geometry" />
        </mxCell>
        <mxCell id="eiuW8nWrfrVOjzsfFK37-9" value="crm_cust_info" style="rounded=1;whiteSpace=wrap;html=1;fillColor=#ffe6cc;strokeColor=#d79b00;" parent="1" vertex="1">
          <mxGeometry x="255" y="250" width="120" height="30" as="geometry" />
        </mxCell>
        <mxCell id="LneIyExAPAccpjf_Qm-p-14" style="edgeStyle=orthogonalEdgeStyle;rounded=0;orthogonalLoop=1;jettySize=auto;html=1;exitX=1;exitY=0.5;exitDx=0;exitDy=0;entryX=0;entryY=0.5;entryDx=0;entryDy=0;" edge="1" parent="1" source="eiuW8nWrfrVOjzsfFK37-13" target="LneIyExAPAccpjf_Qm-p-6">
          <mxGeometry relative="1" as="geometry" />
        </mxCell>
        <mxCell id="eiuW8nWrfrVOjzsfFK37-13" value="erp_cust_az12" style="rounded=1;whiteSpace=wrap;html=1;fillColor=#ffe6cc;strokeColor=#d79b00;" parent="1" vertex="1">
          <mxGeometry x="255" y="350" width="120" height="30" as="geometry" />
        </mxCell>
        <mxCell id="LneIyExAPAccpjf_Qm-p-16" style="edgeStyle=orthogonalEdgeStyle;rounded=0;orthogonalLoop=1;jettySize=auto;html=1;exitX=1;exitY=0.5;exitDx=0;exitDy=0;entryX=0;entryY=0.5;entryDx=0;entryDy=0;" edge="1" parent="1" source="eiuW8nWrfrVOjzsfFK37-14" target="LneIyExAPAccpjf_Qm-p-7">
          <mxGeometry relative="1" as="geometry" />
        </mxCell>
        <mxCell id="eiuW8nWrfrVOjzsfFK37-14" value="erp_px_cat_g1v2" style="rounded=1;whiteSpace=wrap;html=1;fillColor=#ffe6cc;strokeColor=#d79b00;" parent="1" vertex="1">
          <mxGeometry x="255" y="430" width="120" height="30" as="geometry" />
        </mxCell>
        <mxCell id="LneIyExAPAccpjf_Qm-p-15" style="edgeStyle=orthogonalEdgeStyle;rounded=0;orthogonalLoop=1;jettySize=auto;html=1;exitX=1;exitY=0.5;exitDx=0;exitDy=0;entryX=0;entryY=0.5;entryDx=0;entryDy=0;" edge="1" parent="1" source="eiuW8nWrfrVOjzsfFK37-15" target="LneIyExAPAccpjf_Qm-p-8">
          <mxGeometry relative="1" as="geometry" />
        </mxCell>
        <mxCell id="eiuW8nWrfrVOjzsfFK37-15" value="erp_loc_a101" style="rounded=1;whiteSpace=wrap;html=1;fillColor=#ffe6cc;strokeColor=#d79b00;" parent="1" vertex="1">
          <mxGeometry x="255" y="390" width="120" height="30" as="geometry" />
        </mxCell>
        <mxCell id="eiuW8nWrfrVOjzsfFK37-20" value="&lt;h1 style=&quot;margin-top: 0px;&quot;&gt;Data Flow Diagram&lt;/h1&gt;" style="text;html=1;whiteSpace=wrap;overflow=hidden;rounded=0;" parent="1" vertex="1">
          <mxGeometry x="60" y="30" width="340" height="50" as="geometry" />
        </mxCell>
        <mxCell id="LneIyExAPAccpjf_Qm-p-1" value="" style="rounded=0;whiteSpace=wrap;html=1;fillStyle=hatch;fillColor=#f5f5f5;strokeColor=#666666;fontColor=#333333;" vertex="1" parent="1">
          <mxGeometry x="430" y="180" width="150" height="330" as="geometry" />
        </mxCell>
        <mxCell id="LneIyExAPAccpjf_Qm-p-2" value="Silver Layer" style="rounded=1;whiteSpace=wrap;html=1;fillColor=#f5f5f5;strokeColor=#666666;fontColor=#333333;" vertex="1" parent="1">
          <mxGeometry x="430" y="140" width="150" height="40" as="geometry" />
        </mxCell>
        <mxCell id="LneIyExAPAccpjf_Qm-p-3" value="crm_sales_details" style="rounded=1;whiteSpace=wrap;html=1;fillColor=#f5f5f5;strokeColor=#666666;fontColor=#333333;" vertex="1" parent="1">
          <mxGeometry x="445" y="210" width="120" height="30" as="geometry" />
        </mxCell>
        <mxCell id="LneIyExAPAccpjf_Qm-p-4" value="crm_prd_info" style="rounded=1;whiteSpace=wrap;html=1;fillColor=#f5f5f5;strokeColor=#666666;fontColor=#333333;" vertex="1" parent="1">
          <mxGeometry x="445" y="290" width="120" height="30" as="geometry" />
        </mxCell>
        <mxCell id="LneIyExAPAccpjf_Qm-p-5" value="crm_cust_info" style="rounded=1;whiteSpace=wrap;html=1;fillColor=#f5f5f5;strokeColor=#666666;fontColor=#333333;" vertex="1" parent="1">
          <mxGeometry x="445" y="250" width="120" height="30" as="geometry" />
        </mxCell>
        <mxCell id="LneIyExAPAccpjf_Qm-p-6" value="erp_cust_az12" style="rounded=1;whiteSpace=wrap;html=1;fillColor=#f5f5f5;strokeColor=#666666;fontColor=#333333;" vertex="1" parent="1">
          <mxGeometry x="445" y="350" width="120" height="30" as="geometry" />
        </mxCell>
        <mxCell id="LneIyExAPAccpjf_Qm-p-7" value="erp_px_cat_g1v2" style="rounded=1;whiteSpace=wrap;html=1;fillColor=#f5f5f5;strokeColor=#666666;fontColor=#333333;" vertex="1" parent="1">
          <mxGeometry x="445" y="430" width="120" height="30" as="geometry" />
        </mxCell>
        <mxCell id="LneIyExAPAccpjf_Qm-p-8" value="erp_loc_a101" style="rounded=1;whiteSpace=wrap;html=1;fillColor=#f5f5f5;strokeColor=#666666;fontColor=#333333;" vertex="1" parent="1">
          <mxGeometry x="445" y="390" width="120" height="30" as="geometry" />
        </mxCell>
        <mxCell id="LneIyExAPAccpjf_Qm-p-17" value="" style="rounded=1;whiteSpace=wrap;html=1;fillColor=none;dashed=1;dashPattern=1 4;" vertex="1" parent="1">
          <mxGeometry x="220" y="100" width="590" height="450" as="geometry" />
        </mxCell>
        <mxCell id="LneIyExAPAccpjf_Qm-p-18" value="&lt;font style=&quot;font-size: 20px;&quot;&gt;Datawarehouse&lt;/font&gt;" style="rounded=0;whiteSpace=wrap;html=1;strokeColor=none;" vertex="1" parent="1">
          <mxGeometry x="475" y="80" width="80" height="40" as="geometry" />
        </mxCell>
      </root>
    </mxGraphModel>
  </diagram>
</mxfile>
